External Loads File
version=1
nRows=69
nColumns=13
Range=5.000000e-03-10 seconds
endheader
time 	forceRightX 	forceRightY 	forceRightZ 	pointRightX 	pointRightY 	pointRightZ 	forceLeftX 	forceLeftY 	forceLeftZ 	pointLeftX 	pointLeftY 	pointLeftZ 		
2.505000 -53.193966 -93.102429 -0.000000 0.236069 0.482995 -0.194167 -15.583868 729.402330 -0.000000 0.417957 0.175598 -0.444265
2.510000 -54.367355 -87.101993 -0.000000 0.240046 0.486614 -0.194715 -4.407884 699.029105 -0.000000 0.413660 0.171996 -0.444138
2.515000 -55.822497 -80.917015 -0.000000 0.244736 0.490107 -0.194856 7.226326 668.090936 -0.000000 0.409196 0.168807 -0.443977
2.520000 -57.571057 -74.527277 -0.000000 0.249507 0.493446 -0.194962 18.524515 636.875352 -0.000000 0.404558 0.165631 -0.443855
2.525000 -59.673185 -67.807994 -0.000000 0.254306 0.496515 -0.195242 29.292986 605.619941 -0.000000 0.399575 0.162791 -0.443338
2.530000 -62.179152 -60.594997 -0.000000 0.259305 0.499385 -0.195313 39.342333 574.491465 -0.000000 0.394667 0.160074 -0.443301
2.535000 -65.174270 -52.650981 -0.000000 0.264460 0.501917 -0.195464 48.850635 543.548596 -0.000000 0.389574 0.157565 -0.443220
2.540000 -68.688105 -43.741404 -0.000000 0.269749 0.504470 -0.195687 57.701477 512.777339 -0.000000 0.384438 0.155307 -0.443137
2.545000 -72.721302 -33.617587 -0.000000 0.275255 0.506498 -0.195658 65.858318 482.086959 -0.000000 0.379184 0.153158 -0.443132
2.550000 -77.203701 -22.149519 -0.000000 0.280549 0.508294 -0.195895 72.678571 451.426637 -0.000000 0.373898 0.151431 -0.443046
2.555000 -82.116293 -8.973502 -0.000000 0.286260 0.509963 -0.196108 79.184408 420.490070 -0.000000 0.368492 0.149731 -0.442954
2.560000 -87.276276 5.799812 -0.000000 0.291380 0.511419 -0.195614 83.982902 389.453605 -0.000000 0.363053 0.148263 -0.442881
2.565000 -92.495350 22.411370 -0.000000 0.296674 0.512693 -0.195708 87.868610 358.256867 -0.000000 0.357575 0.147249 -0.442713
2.570000 -97.502012 40.827926 -0.000000 0.301867 0.513793 -0.195732 90.517165 327.226354 -0.000000 0.352084 0.146335 -0.442655
2.575000 -102.059169 60.991841 -0.000000 0.306764 0.514508 -0.195622 91.736892 296.834153 -0.000000 0.346524 0.145720 -0.442455
2.580000 -105.894778 83.045853 -0.000000 0.311760 0.514981 -0.195491 91.879334 267.463501 -0.000000 0.340937 0.145312 -0.442315
2.585000 -108.906581 107.035284 -0.000000 0.316730 0.515000 -0.195399 90.832912 239.584075 -0.000000 0.335404 0.145214 -0.442098
2.590000 -111.136969 133.076722 -0.000000 0.321428 0.514593 -0.195331 88.655215 213.488083 -0.000000 0.329849 0.145225 -0.441913
2.595000 -112.720797 161.376050 -0.000000 0.325935 0.513901 -0.195006 85.582788 189.222332 -0.000000 0.324293 0.145389 -0.441688
2.600000 -113.916876 192.138340 -0.000000 0.330280 0.512406 -0.194660 81.835669 166.653118 -0.000000 0.318747 0.145819 -0.441572
2.605000 -114.927478 225.598466 -0.000000 0.334712 0.511226 -0.194801 77.699769 145.484181 -0.000000 0.313186 0.146416 -0.441372
2.610000 -116.323978 261.685541 -0.000000 0.338905 0.509760 -0.194559 73.171138 125.531734 -0.000000 0.307625 0.147375 -0.441052
2.615000 -118.458462 300.230125 -0.000000 0.342965 0.508085 -0.194474 68.414303 106.571550 -0.000000 0.302090 0.148544 -0.440971
2.620000 -121.438212 340.789673 -0.000000 0.347042 0.506140 -0.194443 63.613567 88.437170 -0.000000 0.296525 0.149930 -0.440679
2.625000 -125.527777 382.449651 -0.000000 0.351054 0.503938 -0.194420 58.874345 71.123017 -0.000000 0.290939 0.151490 -0.440585
2.630000 -130.933453 423.983242 -0.000000 0.355128 0.502090 -0.194345 54.374492 54.703949 -0.000000 0.285342 0.152884 -0.440443
2.635000 -137.066782 464.179640 -0.000000 0.359314 0.499521 -0.194427 50.392718 39.187069 -0.000000 0.279634 0.155058 -0.440304
2.640000 -143.866333 501.569062 -0.000000 0.363735 0.496418 -0.194429 47.058129 24.631192 -0.000000 0.273979 0.157638 -0.440196
2.645000 -151.604850 534.661909 -0.000000 0.368081 0.493133 -0.194420 44.446542 11.053890 -0.000000 0.268321 0.160439 -0.440100
2.650000 -159.201705 562.584549 -0.000000 0.372916 0.489652 -0.194358 42.588838 -1.737531 -0.000000 0.262660 0.163380 -0.440049
2.655000 -166.960391 584.465887 -0.000000 0.377729 0.485887 -0.194297 41.378679 -13.871254 -0.000000 0.256997 0.166664 -0.439900
2.660000 -174.757798 600.046330 -0.000000 0.382688 0.482116 -0.194318 40.680049 -25.432651 -0.000000 0.251400 0.170060 -0.439563
2.665000 -181.990313 609.682811 -0.000000 0.387768 0.478014 -0.194204 40.323183 -36.369416 -0.000000 0.245828 0.173754 -0.439248
2.670000 -188.948859 613.879112 -0.000000 0.392876 0.473881 -0.194088 40.176937 -46.478383 -0.000000 0.240386 0.177730 -0.438942
2.675000 -195.560616 613.574997 -0.000000 0.397895 0.469496 -0.194073 40.093693 -55.611421 -0.000000 0.235145 0.181944 -0.439018
2.680000 -201.022615 610.191435 -0.000000 0.403163 0.464940 -0.194032 39.879457 -63.705187 -0.000000 0.230044 0.186364 -0.438915
2.685000 -206.496852 604.627128 -0.000000 0.408138 0.460400 -0.194020 39.620654 -70.567187 -0.000000 0.225175 0.190861 -0.438899
2.690000 -211.020358 598.472867 -0.000000 0.412986 0.455636 -0.193989 39.277532 -76.164704 -0.000000 0.220485 0.195686 -0.438841
2.695000 -214.821677 592.850224 -0.000000 0.417620 0.450604 -0.193882 38.990422 -80.430672 -0.000000 0.215889 0.200607 -0.438876
2.700000 -218.187457 588.712464 -0.000000 0.422198 0.445484 -0.194136 38.942732 -83.345622 -0.000000 0.211514 0.205670 -0.438942
2.705000 -221.597076 586.728341 -0.000000 0.426575 0.440356 -0.194164 39.313041 -84.973972 -0.000000 0.207359 0.210936 -0.438960
2.710000 -224.622006 587.624439 -0.000000 0.430709 0.434786 -0.194164 40.066147 -85.570638 -0.000000 0.203327 0.216334 -0.439105
2.715000 -227.267483 591.633750 -0.000000 0.434487 0.428897 -0.194059 41.151707 -85.465273 -0.000000 0.199437 0.222008 -0.439161
2.720000 -229.369330 598.737821 -0.000000 0.438294 0.422754 -0.194148 42.449764 -85.032023 -0.000000 0.195848 0.227776 -0.439277
2.725000 -231.657202 608.348263 -0.000000 0.441737 0.416660 -0.194144 43.961925 -84.530383 -0.000000 0.192517 0.233660 -0.439401
2.730000 -233.280250 620.340516 -0.000000 0.444993 0.410309 -0.194089 45.477626 -84.245248 -0.000000 0.189412 0.239734 -0.439433
2.735000 -234.657610 634.029451 -0.000000 0.448030 0.403863 -0.194058 46.932230 -84.313907 -0.000000 0.186548 0.245966 -0.439550
2.740000 -236.292182 648.678925 -0.000000 0.450859 0.397472 -0.194036 48.195806 -84.827899 -0.000000 0.184042 0.252315 -0.439593
2.745000 -237.357206 664.025374 -0.000000 0.453500 0.390799 -0.193985 48.948345 -85.905906 -0.000000 0.181684 0.258714 -0.439766
2.750000 -237.643178 679.579933 -0.000000 0.455956 0.383950 -0.193954 49.057121 -87.515037 -0.000000 0.179684 0.265369 -0.439849
2.755000 -237.928726 694.587678 -0.000000 0.458273 0.377204 -0.193930 48.679132 -89.463682 -0.000000 0.177907 0.272020 -0.439983
2.760000 -237.002876 709.108070 -0.000000 0.460378 0.370143 -0.193885 47.806408 -91.676995 -0.000000 0.176471 0.278826 -0.440002
2.765000 -235.769712 722.588405 -0.000000 0.462343 0.363173 -0.193843 46.658842 -93.956127 -0.000000 0.175265 0.285672 -0.440197
2.770000 -234.381785 734.826471 -0.000000 0.464100 0.356309 -0.193892 45.266283 -96.182455 -0.000000 0.174382 0.292532 -0.440312
2.775000 -231.687886 746.090756 -0.000000 0.465595 0.349240 -0.193843 43.464632 -98.315022 -0.000000 0.173736 0.299523 -0.440415
2.780000 -228.541377 756.061978 -0.000000 0.466903 0.342213 -0.193795 41.408788 -100.184462 -0.000000 0.173287 0.306486 -0.440480
2.785000 -224.299983 764.949013 -0.000000 0.467976 0.335166 -0.193755 39.123487 -101.724364 -0.000000 0.173214 0.313618 -0.440535
2.790000 -219.069526 772.782915 -0.000000 0.468804 0.328013 -0.193686 36.750986 -102.859718 -0.000000 0.173372 0.320742 -0.440600
2.795000 -212.877946 779.652613 -0.000000 0.469409 0.320882 -0.193592 34.364117 -103.573389 -0.000000 0.173876 0.327944 -0.440620
2.800000 -205.688642 785.667251 -0.000000 0.469812 0.313733 -0.193309 31.911532 -103.893789 -0.000000 0.174657 0.335169 -0.440981
2.805000 -197.265018 790.971218 -0.000000 0.469826 0.306469 -0.193214 29.250157 -103.869253 -0.000000 0.175695 0.342386 -0.441098
2.810000 -186.454024 795.895407 -0.000000 0.469561 0.298575 -0.193344 26.179279 -103.585840 -0.000000 0.176839 0.349564 -0.441025
2.815000 -176.428634 799.734309 -0.000000 0.468956 0.291452 -0.193211 23.175331 -103.019584 -0.000000 0.178246 0.356900 -0.440870
2.820000 -166.315737 802.783320 -0.000000 0.468083 0.284473 -0.193111 20.209128 -102.321484 -0.000000 0.179933 0.364142 -0.440835
2.825000 -155.250416 805.249307 -0.000000 0.466893 0.277451 -0.192904 17.167572 -101.593155 -0.000000 0.181919 0.371430 -0.440926
2.830000 -143.330734 807.029805 -0.000000 0.465341 0.270423 -0.192463 13.967096 -100.822358 -0.000000 0.184065 0.378793 -0.440638
2.835000 -131.302341 807.808136 -0.000000 0.463579 0.263471 -0.192247 10.605672 -99.917107 -0.000000 0.186423 0.386021 -0.440505
2.840000 -118.372968 807.456728 -0.000000 0.461490 0.256563 -0.191870 6.967855 -98.790404 -0.000000 0.189147 0.393235 -0.440407
2.845000 -105.437197 805.544205 -0.000000 0.459069 0.249933 -0.191643 3.213738 -97.350664 -0.000000 0.191984 0.400373 -0.440173
